#N canvas 88 323 603 501 10;
#X obj 20 447 outlet;
#X obj 110 120 hradio 15 1 0 16 empty empty empty 0 -8 0 10 -262144
-1 -1 0;
#X obj 20 420 receive po1;
#X obj 100 447 outlet;
#X obj 180 447 outlet;
#X obj 260 447 outlet;
#X obj 340 447 outlet;
#X obj 420 447 outlet;
#X obj 500 447 outlet;
#X obj 100 420 receive po2;
#X obj 180 420 receive po3;
#X obj 260 420 receive po4;
#X obj 340 420 receive po5;
#X obj 420 420 receive po6;
#X obj 500 420 receive po7;
#N canvas 87 842 432 210 preset1 0;
#X obj 6 167 send po1;
#X obj 6 15 inlet;
#X obj 6 62 t b b b b b b b;
#X msg 6 119 66;
#X msg 66 119 1811;
#X msg 126 119 0.40157;
#X msg 186 119 2440.94;
#X msg 246 119 0.87401;
#X msg 306 119 0.95275;
#X obj 66 167 send po2;
#X obj 126 167 send po3;
#X obj 186 167 send po4;
#X obj 246 167 send po5;
#X obj 306 167 send po6;
#X obj 366 167 send po7;
#X msg 366 119 1;
#X connect 1 0 2 0;
#X connect 2 0 3 0;
#X connect 2 1 4 0;
#X connect 2 2 5 0;
#X connect 2 3 6 0;
#X connect 2 4 7 0;
#X connect 2 5 8 0;
#X connect 2 6 15 0;
#X connect 3 0 0 0;
#X connect 4 0 9 0;
#X connect 5 0 10 0;
#X connect 6 0 11 0;
#X connect 7 0 12 0;
#X connect 8 0 13 0;
#X connect 15 0 14 0;
#X restore 110 276 pd preset1;
#X obj 110 159 route 0 1 2 3 4 5 6 7 8 9 10 11 12 13 14 15;
#N canvas 87 842 432 210 preset2 0;
#X obj 6 167 send po1;
#X obj 6 15 inlet;
#X obj 6 62 t b b b b b b b;
#X obj 66 167 send po2;
#X obj 126 167 send po3;
#X obj 186 167 send po4;
#X obj 246 167 send po5;
#X obj 306 167 send po6;
#X obj 366 167 send po7;
#X msg 6 119 38;
#X msg 66 119 1062.9;
#X msg 126 119 0.42519;
#X msg 186 119 3149.61;
#X msg 246 119 0.89763;
#X msg 306 119 0.85826;
#X msg 366 119 1;
#X connect 1 0 2 0;
#X connect 2 0 9 0;
#X connect 2 1 10 0;
#X connect 2 2 11 0;
#X connect 2 3 12 0;
#X connect 2 4 13 0;
#X connect 2 5 14 0;
#X connect 2 6 15 0;
#X connect 9 0 0 0;
#X connect 10 0 3 0;
#X connect 11 0 4 0;
#X connect 12 0 5 0;
#X connect 13 0 6 0;
#X connect 14 0 7 0;
#X connect 15 0 8 0;
#X restore 125 296 pd preset2;
#N canvas 87 842 432 210 preset3 0;
#X obj 6 167 send po1;
#X obj 6 15 inlet;
#X obj 6 62 t b b b b b b b;
#X msg 6 119 66;
#X msg 66 119 1811;
#X msg 126 119 0.40157;
#X msg 186 119 2440.94;
#X msg 246 119 0.87401;
#X msg 306 119 0.95275;
#X msg 366 119 0.22834;
#X obj 66 167 send po2;
#X obj 126 167 send po3;
#X obj 186 167 send po4;
#X obj 246 167 send po5;
#X obj 306 167 send po6;
#X obj 366 167 send po7;
#X connect 1 0 2 0;
#X connect 2 0 3 0;
#X connect 2 1 4 0;
#X connect 2 2 5 0;
#X connect 2 3 6 0;
#X connect 2 4 7 0;
#X connect 2 5 8 0;
#X connect 2 6 9 0;
#X connect 3 0 0 0;
#X connect 4 0 10 0;
#X connect 5 0 11 0;
#X connect 6 0 12 0;
#X connect 7 0 13 0;
#X connect 8 0 14 0;
#X connect 9 0 15 0;
#X restore 141 316 pd preset3;
#N canvas 87 842 432 210 preset4 0;
#X obj 6 167 send po1;
#X obj 6 15 inlet;
#X obj 6 62 t b b b b b b b;
#X msg 6 119 66;
#X msg 66 119 1811;
#X msg 126 119 0.40157;
#X msg 186 119 2440.94;
#X msg 246 119 0.87401;
#X msg 306 119 0.95275;
#X msg 366 119 0.22834;
#X obj 66 167 send po2;
#X obj 126 167 send po3;
#X obj 186 167 send po4;
#X obj 246 167 send po5;
#X obj 306 167 send po6;
#X obj 366 167 send po7;
#X connect 1 0 2 0;
#X connect 2 0 3 0;
#X connect 2 1 4 0;
#X connect 2 2 5 0;
#X connect 2 3 6 0;
#X connect 2 4 7 0;
#X connect 2 5 8 0;
#X connect 2 6 9 0;
#X connect 3 0 0 0;
#X connect 4 0 10 0;
#X connect 5 0 11 0;
#X connect 6 0 12 0;
#X connect 7 0 13 0;
#X connect 8 0 14 0;
#X connect 9 0 15 0;
#X restore 157 336 pd preset4;
#N canvas 87 842 432 210 preset5 0;
#X obj 6 167 send po1;
#X obj 6 15 inlet;
#X obj 6 62 t b b b b b b b;
#X msg 6 119 66;
#X msg 66 119 1811;
#X msg 126 119 0.40157;
#X msg 186 119 2440.94;
#X msg 246 119 0.87401;
#X msg 306 119 0.95275;
#X msg 366 119 0.22834;
#X obj 66 167 send po2;
#X obj 126 167 send po3;
#X obj 186 167 send po4;
#X obj 246 167 send po5;
#X obj 306 167 send po6;
#X obj 366 167 send po7;
#X connect 1 0 2 0;
#X connect 2 0 3 0;
#X connect 2 1 4 0;
#X connect 2 2 5 0;
#X connect 2 3 6 0;
#X connect 2 4 7 0;
#X connect 2 5 8 0;
#X connect 2 6 9 0;
#X connect 3 0 0 0;
#X connect 4 0 10 0;
#X connect 5 0 11 0;
#X connect 6 0 12 0;
#X connect 7 0 13 0;
#X connect 8 0 14 0;
#X connect 9 0 15 0;
#X restore 173 356 pd preset5;
#N canvas 87 842 432 210 preset6 0;
#X obj 6 167 send po1;
#X obj 6 15 inlet;
#X obj 6 62 t b b b b b b b;
#X msg 6 119 66;
#X msg 66 119 1811;
#X msg 126 119 0.40157;
#X msg 186 119 2440.94;
#X msg 246 119 0.87401;
#X msg 306 119 0.95275;
#X msg 366 119 0.22834;
#X obj 66 167 send po2;
#X obj 126 167 send po3;
#X obj 186 167 send po4;
#X obj 246 167 send po5;
#X obj 306 167 send po6;
#X obj 366 167 send po7;
#X connect 1 0 2 0;
#X connect 2 0 3 0;
#X connect 2 1 4 0;
#X connect 2 2 5 0;
#X connect 2 3 6 0;
#X connect 2 4 7 0;
#X connect 2 5 8 0;
#X connect 2 6 9 0;
#X connect 3 0 0 0;
#X connect 4 0 10 0;
#X connect 5 0 11 0;
#X connect 6 0 12 0;
#X connect 7 0 13 0;
#X connect 8 0 14 0;
#X connect 9 0 15 0;
#X restore 189 276 pd preset6;
#N canvas 87 842 432 210 preset7 0;
#X obj 6 167 send po1;
#X obj 6 15 inlet;
#X obj 6 62 t b b b b b b b;
#X msg 6 119 66;
#X msg 66 119 1811;
#X msg 126 119 0.40157;
#X msg 186 119 2440.94;
#X msg 246 119 0.87401;
#X msg 306 119 0.95275;
#X msg 366 119 0.22834;
#X obj 66 167 send po2;
#X obj 126 167 send po3;
#X obj 186 167 send po4;
#X obj 246 167 send po5;
#X obj 306 167 send po6;
#X obj 366 167 send po7;
#X connect 1 0 2 0;
#X connect 2 0 3 0;
#X connect 2 1 4 0;
#X connect 2 2 5 0;
#X connect 2 3 6 0;
#X connect 2 4 7 0;
#X connect 2 5 8 0;
#X connect 2 6 9 0;
#X connect 3 0 0 0;
#X connect 4 0 10 0;
#X connect 5 0 11 0;
#X connect 6 0 12 0;
#X connect 7 0 13 0;
#X connect 8 0 14 0;
#X connect 9 0 15 0;
#X restore 205 296 pd preset7;
#N canvas 87 842 432 210 preset8 0;
#X obj 6 167 send po1;
#X obj 6 15 inlet;
#X obj 6 62 t b b b b b b b;
#X msg 6 119 66;
#X msg 66 119 1811;
#X msg 126 119 0.40157;
#X msg 186 119 2440.94;
#X msg 246 119 0.87401;
#X msg 306 119 0.95275;
#X msg 366 119 0.22834;
#X obj 66 167 send po2;
#X obj 126 167 send po3;
#X obj 186 167 send po4;
#X obj 246 167 send po5;
#X obj 306 167 send po6;
#X obj 366 167 send po7;
#X connect 1 0 2 0;
#X connect 2 0 3 0;
#X connect 2 1 4 0;
#X connect 2 2 5 0;
#X connect 2 3 6 0;
#X connect 2 4 7 0;
#X connect 2 5 8 0;
#X connect 2 6 9 0;
#X connect 3 0 0 0;
#X connect 4 0 10 0;
#X connect 5 0 11 0;
#X connect 6 0 12 0;
#X connect 7 0 13 0;
#X connect 8 0 14 0;
#X connect 9 0 15 0;
#X restore 221 316 pd preset8;
#N canvas 87 842 432 210 preset9 0;
#X obj 6 167 send po1;
#X obj 6 15 inlet;
#X obj 6 62 t b b b b b b b;
#X msg 6 119 66;
#X msg 66 119 1811;
#X msg 126 119 0.40157;
#X msg 186 119 2440.94;
#X msg 246 119 0.87401;
#X msg 306 119 0.95275;
#X msg 366 119 0.22834;
#X obj 66 167 send po2;
#X obj 126 167 send po3;
#X obj 186 167 send po4;
#X obj 246 167 send po5;
#X obj 306 167 send po6;
#X obj 366 167 send po7;
#X connect 1 0 2 0;
#X connect 2 0 3 0;
#X connect 2 1 4 0;
#X connect 2 2 5 0;
#X connect 2 3 6 0;
#X connect 2 4 7 0;
#X connect 2 5 8 0;
#X connect 2 6 9 0;
#X connect 3 0 0 0;
#X connect 4 0 10 0;
#X connect 5 0 11 0;
#X connect 6 0 12 0;
#X connect 7 0 13 0;
#X connect 8 0 14 0;
#X connect 9 0 15 0;
#X restore 237 336 pd preset9;
#N canvas 87 842 432 210 preset10 0;
#X obj 6 167 send po1;
#X obj 6 15 inlet;
#X obj 6 62 t b b b b b b b;
#X msg 6 119 66;
#X msg 66 119 1811;
#X msg 126 119 0.40157;
#X msg 186 119 2440.94;
#X msg 246 119 0.87401;
#X msg 306 119 0.95275;
#X msg 366 119 0.22834;
#X obj 66 167 send po2;
#X obj 126 167 send po3;
#X obj 186 167 send po4;
#X obj 246 167 send po5;
#X obj 306 167 send po6;
#X obj 366 167 send po7;
#X connect 1 0 2 0;
#X connect 2 0 3 0;
#X connect 2 1 4 0;
#X connect 2 2 5 0;
#X connect 2 3 6 0;
#X connect 2 4 7 0;
#X connect 2 5 8 0;
#X connect 2 6 9 0;
#X connect 3 0 0 0;
#X connect 4 0 10 0;
#X connect 5 0 11 0;
#X connect 6 0 12 0;
#X connect 7 0 13 0;
#X connect 8 0 14 0;
#X connect 9 0 15 0;
#X restore 253 356 pd preset10;
#N canvas 87 842 432 210 preset11 0;
#X obj 6 167 send po1;
#X obj 6 15 inlet;
#X obj 6 62 t b b b b b b b;
#X msg 6 119 66;
#X msg 66 119 1811;
#X msg 126 119 0.40157;
#X msg 186 119 2440.94;
#X msg 246 119 0.87401;
#X msg 306 119 0.95275;
#X msg 366 119 0.22834;
#X obj 66 167 send po2;
#X obj 126 167 send po3;
#X obj 186 167 send po4;
#X obj 246 167 send po5;
#X obj 306 167 send po6;
#X obj 366 167 send po7;
#X connect 1 0 2 0;
#X connect 2 0 3 0;
#X connect 2 1 4 0;
#X connect 2 2 5 0;
#X connect 2 3 6 0;
#X connect 2 4 7 0;
#X connect 2 5 8 0;
#X connect 2 6 9 0;
#X connect 3 0 0 0;
#X connect 4 0 10 0;
#X connect 5 0 11 0;
#X connect 6 0 12 0;
#X connect 7 0 13 0;
#X connect 8 0 14 0;
#X connect 9 0 15 0;
#X restore 269 276 pd preset11;
#N canvas 87 842 432 210 preset12 0;
#X obj 6 167 send po1;
#X obj 6 15 inlet;
#X obj 6 62 t b b b b b b b;
#X msg 6 119 66;
#X msg 66 119 1811;
#X msg 126 119 0.40157;
#X msg 186 119 2440.94;
#X msg 246 119 0.87401;
#X msg 306 119 0.95275;
#X msg 366 119 0.22834;
#X obj 66 167 send po2;
#X obj 126 167 send po3;
#X obj 186 167 send po4;
#X obj 246 167 send po5;
#X obj 306 167 send po6;
#X obj 366 167 send po7;
#X connect 1 0 2 0;
#X connect 2 0 3 0;
#X connect 2 1 4 0;
#X connect 2 2 5 0;
#X connect 2 3 6 0;
#X connect 2 4 7 0;
#X connect 2 5 8 0;
#X connect 2 6 9 0;
#X connect 3 0 0 0;
#X connect 4 0 10 0;
#X connect 5 0 11 0;
#X connect 6 0 12 0;
#X connect 7 0 13 0;
#X connect 8 0 14 0;
#X connect 9 0 15 0;
#X restore 285 296 pd preset12;
#N canvas 87 842 432 210 preset13 0;
#X obj 6 167 send po1;
#X obj 6 15 inlet;
#X obj 6 62 t b b b b b b b;
#X msg 6 119 66;
#X msg 66 119 1811;
#X msg 126 119 0.40157;
#X msg 186 119 2440.94;
#X msg 246 119 0.87401;
#X msg 306 119 0.95275;
#X msg 366 119 0.22834;
#X obj 66 167 send po2;
#X obj 126 167 send po3;
#X obj 186 167 send po4;
#X obj 246 167 send po5;
#X obj 306 167 send po6;
#X obj 366 167 send po7;
#X connect 1 0 2 0;
#X connect 2 0 3 0;
#X connect 2 1 4 0;
#X connect 2 2 5 0;
#X connect 2 3 6 0;
#X connect 2 4 7 0;
#X connect 2 5 8 0;
#X connect 2 6 9 0;
#X connect 3 0 0 0;
#X connect 4 0 10 0;
#X connect 5 0 11 0;
#X connect 6 0 12 0;
#X connect 7 0 13 0;
#X connect 8 0 14 0;
#X connect 9 0 15 0;
#X restore 301 316 pd preset13;
#N canvas 87 842 432 210 preset14 0;
#X obj 6 167 send po1;
#X obj 6 15 inlet;
#X obj 6 62 t b b b b b b b;
#X msg 6 119 66;
#X msg 66 119 1811;
#X msg 126 119 0.40157;
#X msg 186 119 2440.94;
#X msg 246 119 0.87401;
#X msg 306 119 0.95275;
#X msg 366 119 0.22834;
#X obj 66 167 send po2;
#X obj 126 167 send po3;
#X obj 186 167 send po4;
#X obj 246 167 send po5;
#X obj 306 167 send po6;
#X obj 366 167 send po7;
#X connect 1 0 2 0;
#X connect 2 0 3 0;
#X connect 2 1 4 0;
#X connect 2 2 5 0;
#X connect 2 3 6 0;
#X connect 2 4 7 0;
#X connect 2 5 8 0;
#X connect 2 6 9 0;
#X connect 3 0 0 0;
#X connect 4 0 10 0;
#X connect 5 0 11 0;
#X connect 6 0 12 0;
#X connect 7 0 13 0;
#X connect 8 0 14 0;
#X connect 9 0 15 0;
#X restore 317 336 pd preset14;
#N canvas 87 842 432 210 preset15 0;
#X obj 6 167 send po1;
#X obj 6 15 inlet;
#X obj 6 62 t b b b b b b b;
#X msg 6 119 66;
#X msg 66 119 1811;
#X msg 126 119 0.40157;
#X msg 186 119 2440.94;
#X msg 246 119 0.87401;
#X msg 306 119 0.95275;
#X msg 366 119 0.22834;
#X obj 66 167 send po2;
#X obj 126 167 send po3;
#X obj 186 167 send po4;
#X obj 246 167 send po5;
#X obj 306 167 send po6;
#X obj 366 167 send po7;
#X connect 1 0 2 0;
#X connect 2 0 3 0;
#X connect 2 1 4 0;
#X connect 2 2 5 0;
#X connect 2 3 6 0;
#X connect 2 4 7 0;
#X connect 2 5 8 0;
#X connect 2 6 9 0;
#X connect 3 0 0 0;
#X connect 4 0 10 0;
#X connect 5 0 11 0;
#X connect 6 0 12 0;
#X connect 7 0 13 0;
#X connect 8 0 14 0;
#X connect 9 0 15 0;
#X restore 333 356 pd preset15;
#N canvas 87 842 432 210 preset16 0;
#X obj 6 167 send po1;
#X obj 6 15 inlet;
#X obj 6 62 t b b b b b b b;
#X obj 66 167 send po2;
#X obj 126 167 send po3;
#X obj 186 167 send po4;
#X obj 246 167 send po5;
#X obj 306 167 send po6;
#X obj 366 167 send po7;
#X msg 6 119 0;
#X msg 66 119 0;
#X msg 126 119 0;
#X msg 186 119 0;
#X msg 246 119 0;
#X msg 306 119 0;
#X msg 366 119 0;
#X connect 1 0 2 0;
#X connect 2 0 9 0;
#X connect 2 1 10 0;
#X connect 2 2 11 0;
#X connect 2 3 12 0;
#X connect 2 4 13 0;
#X connect 2 5 14 0;
#X connect 2 6 15 0;
#X connect 9 0 0 0;
#X connect 10 0 3 0;
#X connect 11 0 4 0;
#X connect 12 0 5 0;
#X connect 13 0 6 0;
#X connect 14 0 7 0;
#X connect 15 0 8 0;
#X restore 349 276 pd preset16;
#X connect 1 0 16 0;
#X connect 2 0 0 0;
#X connect 9 0 3 0;
#X connect 10 0 4 0;
#X connect 11 0 5 0;
#X connect 12 0 6 0;
#X connect 13 0 7 0;
#X connect 14 0 8 0;
#X connect 16 0 15 0;
#X connect 16 1 17 0;
#X connect 16 2 18 0;
#X connect 16 3 19 0;
#X connect 16 4 20 0;
#X connect 16 5 21 0;
#X connect 16 6 22 0;
#X connect 16 7 23 0;
#X connect 16 8 24 0;
#X connect 16 9 25 0;
#X connect 16 10 26 0;
#X connect 16 11 27 0;
#X connect 16 12 28 0;
#X connect 16 13 29 0;
#X connect 16 14 30 0;
#X connect 16 15 31 0;
#X coords 0 -1 1 1 300 50 1 100 100;
