#N canvas 1113 694 611 403 10;
#X obj 154 118 bng 15 250 50 0 empty empty empty 17 7 0 10 -262144
-1 -1;
#X obj 103 117 bng 15 250 50 0 empty empty empty 17 7 0 10 -262144
-1 -1;
#X text 130 117 On;
#X text 176 119 Off;
#X obj 164 240 noteout;
#X msg 162 203 100;
#X msg 222 201 0;
#X msg 267 201 1;
#X obj 114 167 t b b;
#X obj 195 168 t b b;
#X floatatom 114 204 5 0 0 0 - - -;
#X obj -37 222 f;
#X floatatom -37 250 5 0 0 0 - - -;
#X obj -37 194 t f b;
#X obj -37 285 noteout;
#X msg 1 249 0;
#X msg 36 249 1;
#X floatatom -37 168 5 0 0 0 - - -;
#X text -34 307 Turns off intermediate notes;
#X obj 106 143 hsl 128 15 0 127 0 0 empty empty empty -2 -8 0 10 -262144
-1 -1 4800 1;
#X obj 114 240 outlet;
#X obj 260 282 symbol;
#X symbolatom 204 117 5 0 0 0 - - -;
#X msg 260 255 on;
#X msg 290 255 off;
#X obj 294 121 loadbang;
#X obj 103 66 inlet;
#X obj 154 66 inlet;
#X msg 36 117 48;
#X obj 36 90 loadbang;
#X connect 0 0 9 0;
#X connect 1 0 8 0;
#X connect 5 0 4 1;
#X connect 5 0 23 0;
#X connect 6 0 4 1;
#X connect 6 0 24 0;
#X connect 7 0 4 2;
#X connect 8 0 10 0;
#X connect 8 1 5 0;
#X connect 9 0 10 0;
#X connect 9 1 6 0;
#X connect 10 0 4 0;
#X connect 10 0 20 0;
#X connect 11 0 12 0;
#X connect 12 0 14 0;
#X connect 13 0 11 1;
#X connect 13 1 11 0;
#X connect 15 0 14 1;
#X connect 16 0 14 2;
#X connect 17 0 13 0;
#X connect 19 0 10 0;
#X connect 19 0 17 0;
#X connect 21 0 22 0;
#X connect 23 0 21 0;
#X connect 24 0 21 0;
#X connect 25 0 9 0;
#X connect 25 0 24 0;
#X connect 26 0 1 0;
#X connect 27 0 0 0;
#X connect 28 0 19 0;
#X connect 29 0 28 0;
#X coords 0 -1 1 1 140 70 1 100 100;
