#N canvas 692 744 450 300 10;
#X obj 128 35 inlet;
#X symbolatom 103 139 5 0 0 0 - - -;
#X obj 312 220 symbol;
#X floatatom 150 139 5 0 0 0 - - -;
#X floatatom 232 40 5 0 0 0 - - -;
#X obj 103 102 mod 12;
#X obj 232 66 sel 0 1 2 3 4 5 6 7 8 9 10 11;
#X msg 232 101 C;
#X msg 246 121 C#/Db;
#X msg 260 101 D;
#X msg 274 141 D#/Eb;
#X msg 289 101 E;
#X msg 303 121 F;
#X msg 317 101 F#/Gb;
#X msg 331 121 G;
#X msg 360 101 A;
#X msg 374 121 A#/Bb;
#X msg 388 101 B;
#X msg 346 141 G#/Ab;
#X obj 150 72 div 12;
#X obj 150 102 - 1;
#X connect 0 0 5 0;
#X connect 0 0 19 0;
#X connect 2 0 1 0;
#X connect 4 0 6 0;
#X connect 5 0 4 0;
#X connect 6 0 7 0;
#X connect 6 1 8 0;
#X connect 6 2 9 0;
#X connect 6 3 10 0;
#X connect 6 4 11 0;
#X connect 6 5 12 0;
#X connect 6 6 13 0;
#X connect 6 7 14 0;
#X connect 6 8 18 0;
#X connect 6 9 15 0;
#X connect 6 10 16 0;
#X connect 6 11 17 0;
#X connect 7 0 2 0;
#X connect 8 0 2 0;
#X connect 9 0 2 0;
#X connect 10 0 2 0;
#X connect 11 0 2 0;
#X connect 12 0 2 0;
#X connect 13 0 2 0;
#X connect 14 0 2 0;
#X connect 15 0 2 0;
#X connect 16 0 2 0;
#X connect 17 0 2 0;
#X connect 18 0 2 0;
#X connect 19 0 20 0;
#X connect 20 0 3 0;
#X coords 0 -1 1 1 85 60 1 100 100;
