#N canvas 228 294 460 438 10;
#X obj 49 37 inlet;
#X obj 49 356 outlet;
#X obj 103 121 hradio 15 1 0 8 empty empty empty 0 -8 0 10 -262144
-1 -1 0;
#X obj 103 141 hradio 15 1 0 12 empty empty empty 0 -8 0 10 -262144
-1 -1 11;
#X floatatom 49 176 5 0 0 0 - - -;
#X floatatom 103 176 5 0 0 0 - - -;
#X obj 49 212 * 12;
#X obj 49 276 f;
#X obj 130 276 f;
#X obj 49 303 +;
#X floatatom 49 330 5 0 0 0 - - -;
#X obj 103 239 t b f;
#X obj 103 212 + 0;
#X obj 49 239 t f b;
#X obj 49 74 / 12;
#X obj 103 74 % 12;
#X connect 0 0 14 0;
#X connect 0 0 15 0;
#X connect 2 0 4 0;
#X connect 3 0 5 0;
#X connect 4 0 6 0;
#X connect 5 0 12 0;
#X connect 6 0 13 0;
#X connect 7 0 9 0;
#X connect 8 0 9 1;
#X connect 9 0 10 0;
#X connect 10 0 1 0;
#X connect 11 0 7 0;
#X connect 11 1 8 0;
#X connect 12 0 11 0;
#X connect 13 0 7 0;
#X connect 13 1 8 0;
#X connect 14 0 2 0;
#X connect 15 0 3 0;
#X coords 0 -1 1 1 190 60 1 100 100;
