#N canvas 541 450 478 344 10;
#X floatatom 326 129 5 0 0 0 - - -;
#X floatatom 326 209 5 0 0 0 - - -;
#X floatatom 326 289 5 0 0 0 - - -;
#X obj 71 84 bng 15 250 50 0 empty empty empty 17 7 0 10 -262144 -1
-1;
#X text 94 83 On;
#X obj 71 104 bng 15 250 50 0 empty empty empty 17 7 0 10 -262144 -1
-1;
#X text 94 103 Off;
#X obj 55 149 s on;
#X obj 55 169 s off;
#X obj 156 28 r on;
#X obj 329 28 r off;
#X obj 366 55 note_to_name;
#X obj 366 135 note_to_name;
#X obj 366 215 note_to_name;
#X obj 176 55 mono_drone_scroll;
#X obj 176 135 mono_drone_scroll;
#X obj 176 215 mono_drone_scroll;
#X text 13 93 Turn All;
#X text 349 318 ObscureRobot.com;
#X connect 0 0 11 0;
#X connect 1 0 12 0;
#X connect 2 0 13 0;
#X connect 3 0 7 0;
#X connect 5 0 8 0;
#X connect 9 0 14 0;
#X connect 9 0 15 0;
#X connect 9 0 16 0;
#X connect 10 0 14 1;
#X connect 10 0 15 1;
#X connect 10 0 16 1;
#X connect 14 0 0 0;
#X connect 15 0 1 0;
#X connect 16 0 2 0;
